<?xml version="1.0" encoding="UTF-8"?>
<svg width="32px" height="32px" viewBox="0 0 32 32" version="1.1" xmlns="http://www.w3.org/2000/svg" xmlns:xlink="http://www.w3.org/1999/xlink">
    <title>plus-regular</title>
    <g id="Page-1" stroke="none" stroke-width="1" fill="none" fill-rule="evenodd">
        <g id="Affilliate-Desktop" transform="translate(-936.000000, -987.000000)" fill="#1D2A3B">
            <path d="M966.666667,1000.33333 L954.666667,1000.33333 L954.666667,988.333333 C954.666667,987.596667 954.07,987 953.333333,987 L950.666667,987 C949.93,987 949.333333,987.596667 949.333333,988.333333 L949.333333,1000.33333 L937.333333,1000.33333 C936.596667,1000.33333 936,1000.93 936,1001.66667 L936,1004.33333 C936,1005.07 936.596667,1005.66667 937.333333,1005.66667 L949.333333,1005.66667 L949.333333,1017.66667 C949.333333,1018.40333 949.93,1019 950.666667,1019 L953.333333,1019 C954.07,1019 954.666667,1018.40333 954.666667,1017.66667 L954.666667,1005.66667 L966.666667,1005.66667 C967.403333,1005.66667 968,1005.07 968,1004.33333 L968,1001.66667 C968,1000.93 967.403333,1000.33333 966.666667,1000.33333 Z" id="plus-regular"></path>
        </g>
    </g>
</svg>